<svg width="56" height="56" viewBox="0 0 56 56" fill="none" xmlns="http://www.w3.org/2000/svg">
<g clip-path="url(#clip0_2054_453)">
<path fill-rule="evenodd" clip-rule="evenodd" d="M0.5 28C0.5 35.5942 3.57749 42.4696 8.55355 47.4457C13.5304 52.4225 20.4058 55.5 28 55.5C35.5942 55.5 42.4696 52.4225 47.4457 47.4457C52.4218 42.4696 55.5 35.5942 55.5 28C55.5 20.4058 52.4218 13.5304 47.4457 8.5543C42.4696 3.57825 35.5942 0.5 28 0.5C20.4058 0.5 13.5304 3.57825 8.55355 8.5543C3.57749 13.5304 0.5 20.4058 0.5 28ZM28 29.8017L27.1684 28.3609L26.3368 26.9209L27.1684 25.4802L28 24.0402L28.8316 22.5994L29.6632 21.1587L28 18.2779L26.3368 21.1587L25.5052 22.5994L24.6728 24.0402L23.8419 25.4802L23.0103 26.9209L22.178 28.3609L21.3471 29.8017L20.5147 31.2417L19.6831 32.6825L18.8515 34.1232L18.0199 35.5632L17.1883 37.004H18.8515H20.5147L21.3471 35.5632L22.178 34.1232L23.0103 32.6825L23.8419 31.2417L24.6728 29.8017L25.5052 31.2417L26.3368 32.6825L25.5052 34.1232L24.6728 35.5632L23.8419 37.004L23.0103 38.4447L22.178 39.8847H20.5147H18.8515H17.1883H15.525H13.8618H12.1986L13.0302 38.4447L13.8618 37.004L14.6934 35.5632L15.525 34.1232L16.3567 32.6825L17.1883 31.2417L18.0199 29.8017L18.8515 28.3609L19.6831 26.9209L20.5147 25.4802L21.3471 24.0402L22.178 22.5994L23.0103 21.1587L24.6728 18.2779L26.3368 15.3972L28 12.5164L29.6632 15.3972L31.3265 18.2779L32.9897 21.1587L32.1581 22.5994L31.3265 24.0402L30.4948 25.4802L29.6632 26.9209L28.8316 28.3609L28 29.8017ZM43.8014 39.8847H38.811L39.6426 38.4447L38.811 37.004L37.9801 35.5632L37.1477 37.004L36.3169 38.4447L35.4853 39.8847H33.8213H32.1581H30.4948H28.8316H27.1684H25.5052L26.3368 38.4447L27.1684 37.004L28 35.5632L28.8316 34.1232L29.6632 32.6825L30.4948 31.2417L31.3265 29.8017L32.1581 28.3609L32.9897 26.9209L33.8213 25.4802L34.6529 24.0402L35.4853 25.4802L36.3169 26.9209L35.4853 28.3609L34.6529 29.8017L33.8213 31.2417L32.9897 32.6825L32.1581 34.1232L31.3265 35.5632L30.4948 37.004H32.1581H33.8213L34.6529 35.5632L35.4853 34.1232L36.3169 32.6825L37.1477 31.2417L37.9801 29.8017L38.811 31.2417L39.6426 32.6825L40.475 34.1232L41.3066 35.5632L42.1382 37.004L42.9698 38.4447L43.8014 39.8847Z" fill="#0057FF"/>
</g>
<defs>
<clipPath id="clip0_2054_453">
<rect width="56" height="56" fill="white"/>
</clipPath>
</defs>
</svg>
